<?xml version="1.0" standalone="no"?>
<!DOCTYPE svg PUBLIC "-//W3C//DTD SVG 20010904//EN"
 "http://www.w3.org/TR/2001/REC-SVG-20010904/DTD/svg10.dtd">
<svg version="1.0" xmlns="http://www.w3.org/2000/svg"
 width="700.000000pt" height="700.000000pt" viewBox="0 0 700.000000 700.000000"
 preserveAspectRatio="xMidYMid meet">
<metadata>
Created by potrace 1.11, written by Peter Selinger 2001-2013
</metadata>
<g transform="translate(0.000000,700.000000) scale(0.100000,-0.100000)"
fill="#000000" stroke="none">
<path d="M4630 6978 c-51 -19 -180 -55 -225 -63 -37 -7 -140 -25 -165 -29
-101 -17 -282 -29 -430 -29 -141 0 -430 11 -490 18 -19 2 -71 7 -115 10 -145
10 -220 16 -260 20 -22 2 -89 7 -150 11 -60 3 -126 8 -145 9 -59 5 -339 17
-454 19 -148 3 -171 -9 -318 -165 -126 -135 -195 -185 -343 -249 -199 -85
-303 -141 -354 -188 -82 -76 -79 -122 14 -212 59 -57 75 -88 75 -142 0 -77
-65 -187 -218 -368 -49 -58 -66 -87 -117 -205 -38 -87 -96 -307 -120 -450 -14
-90 -20 -189 -20 -355 0 -195 6 -267 35 -415 20 -102 30 -142 60 -245 76 -259
101 -360 107 -436 5 -74 4 -83 -15 -102 -28 -28 -51 -20 -174 59 -51 33 -101
58 -112 57 -22 -3 -53 -80 -82 -205 -26 -112 -26 -384 0 -508 63 -303 229
-583 451 -762 44 -36 98 -74 121 -85 38 -19 41 -24 64 -107 160 -583 483
-1042 985 -1402 364 -261 714 -404 1097 -449 71 -8 363 -6 403 3 11 3 43 8 70
11 205 27 552 145 750 254 115 64 259 163 406 277 35 28 102 79 149 112 67 49
104 86 175 179 50 64 96 122 102 129 7 7 22 39 34 72 25 66 80 158 150 254 67
91 105 178 185 422 67 204 69 208 108 234 202 133 408 496 481 848 14 70 15
72 15 190 1 79 -3 96 -27 145 -51 98 -141 121 -274 70 -97 -36 -109 -25 -58
56 26 41 161 217 179 234 17 16 152 194 184 243 54 84 55 102 6 263 -88 286
-114 410 -93 441 5 7 24 15 42 18 19 3 38 8 43 12 14 8 1 95 -33 235 -17 68
-33 134 -35 148 -3 14 -9 41 -14 60 -6 19 -10 56 -10 81 0 162 -64 287 -248
488 -146 160 -202 235 -202 274 0 11 18 58 41 105 74 155 54 185 -270 411 -75
52 -158 112 -186 135 -46 37 -264 224 -275 236 -3 3 -34 30 -70 60 -36 30 -67
57 -70 60 -5 5 -119 102 -171 145 -36 29 -120 85 -128 84 -3 0 -31 -10 -61
-21z m-529 -486 c89 -59 396 -358 464 -452 84 -115 160 -295 181 -424 3 -21 8
-48 10 -60 8 -39 18 -200 18 -297 l0 -97 71 37 c38 21 95 47 125 59 58 22 227
66 295 76 67 10 247 55 302 76 29 11 65 22 80 25 40 7 88 -12 101 -39 12 -26
7 -155 -13 -401 -2 -27 -7 -93 -10 -145 -3 -52 -8 -117 -10 -145 -3 -27 -7
-90 -10 -140 -9 -131 -21 -279 -30 -365 -2 -19 -7 -73 -10 -119 -4 -47 -8 -92
-10 -100 -1 -9 -6 -45 -10 -81 -4 -36 -8 -81 -11 -100 -2 -19 -6 -57 -9 -85
-7 -61 -14 -114 -19 -141 -2 -12 -7 -45 -11 -75 -3 -30 -8 -61 -10 -69 -2 -8
-7 -40 -10 -70 -4 -30 -11 -75 -16 -100 -6 -25 -12 -56 -14 -70 -39 -274 -198
-863 -290 -1075 -7 -16 -32 -75 -56 -130 -93 -219 -242 -476 -368 -635 -20
-24 -43 -53 -51 -64 -54 -72 -221 -238 -325 -323 -221 -182 -542 -343 -823
-413 -181 -45 -251 -54 -417 -53 -279 1 -480 68 -689 230 -330 254 -577 646
-765 1213 -53 159 -118 403 -145 545 -9 44 -18 91 -21 105 -16 76 -51 343 -60
460 -4 41 -8 91 -11 110 -30 271 -19 1043 22 1562 l6 78 -46 -6 c-37 -6 -50
-3 -67 12 -18 16 -20 27 -15 74 3 30 8 66 11 80 10 45 17 85 20 105 2 11 17
77 34 147 131 544 356 909 656 1061 233 117 526 106 810 -32 253 -123 494
-348 728 -679 l65 -92 15 52 c18 61 81 337 96 418 20 106 22 126 27 260 5 111
10 144 28 185 47 104 125 149 187 107z"/>
<path d="M4689 3726 c-2 -2 -35 -7 -74 -10 -61 -5 -124 -15 -200 -30 -265 -53
-504 -184 -568 -311 -98 -196 74 -532 343 -670 101 -52 279 -66 405 -31 298
83 608 407 687 717 50 198 -18 279 -272 324 -38 7 -316 16 -321 11z m-26 -465
c53 -23 84 -64 95 -123 18 -97 -32 -186 -129 -228 -130 -55 -247 9 -264 145
-16 122 17 171 145 218 33 12 111 6 153 -12z"/>
<path d="M2430 3280 c-47 -3 -175 -6 -286 -5 l-200 0 2 -38 c3 -50 40 -169 71
-232 125 -247 346 -392 580 -380 204 11 383 104 449 235 42 84 35 204 -18 284
-51 78 -185 131 -338 135 -41 1 -97 3 -125 4 -27 1 -88 0 -135 -3z"/>
<path d="M3590 2483 c-177 -50 -353 -233 -368 -384 -5 -55 2 -60 48 -32 39 22
54 57 59 130 2 23 45 53 77 53 42 0 85 -19 194 -85 106 -64 164 -95 202 -105
26 -8 27 -7 30 33 2 23 0 94 -3 157 -10 191 -47 243 -167 239 -31 -1 -64 -4
-72 -6z"/>
<path d="M4570 1896 c-19 -7 -154 -72 -300 -144 -308 -152 -404 -190 -550
-219 -55 -11 -188 -9 -243 4 -130 30 -250 118 -342 254 -75 110 -96 123 -161
99 -97 -37 -149 -126 -159 -270 -3 -52 -9 -122 -11 -155 -6 -77 -6 -324 0
-392 4 -39 -1 -68 -19 -118 -35 -98 -22 -145 49 -182 86 -45 195 -49 346 -13
123 30 413 128 513 174 42 20 79 36 81 36 8 0 197 110 266 156 81 53 209 149
280 210 92 77 357 352 372 385 41 87 14 172 -57 183 -16 3 -46 -1 -65 -8z
m-1395 -604 c109 -53 148 -63 286 -67 92 -3 186 7 273 30 11 3 -17 -14 -64
-39 -65 -33 -118 -51 -230 -76 -184 -41 -263 -65 -322 -96 l-47 -25 14 34 c14
33 14 84 0 232 -6 67 -6 69 12 53 10 -8 45 -29 78 -46z"/>
<path d="M1189 1335 c-121 -138 -200 -249 -247 -344 -33 -69 -37 -84 -36 -156
0 -65 5 -91 27 -138 149 -325 599 -305 715 33 12 35 18 77 17 117 -4 124 -124
317 -346 556 l-36 39 -94 -107z"/>
<path d="M1072 430 c-66 -75 -79 -92 -113 -147 -27 -46 -34 -67 -34 -109 1
-155 189 -230 300 -120 95 95 73 187 -88 371 l-34 40 -31 -35z"/>
</g>
</svg>
